<?xml version="1.0" standalone="no"?>
<!DOCTYPE svg PUBLIC "-//W3C//DTD SVG 20010904//EN"
 "http://www.w3.org/TR/2001/REC-SVG-20010904/DTD/svg10.dtd">
<svg version="1.0" xmlns="http://www.w3.org/2000/svg"
 width="512.000000pt" height="512.000000pt" viewBox="0 0 512.000000 512.000000"
 preserveAspectRatio="xMidYMid meet">

<g transform="translate(0.000000,512.000000) scale(0.100000,-0.100000)"
fill="#000000" stroke="none">
<path d="M2500 5109 c-37 -14 -1017 -996 -1042 -1043 -39 -76 -4 -170 76 -207
36 -17 69 -19 294 -19 l252 0 0 -1280 0 -1280 -252 0 c-225 0 -258 -2 -294
-19 -80 -37 -115 -131 -76 -207 12 -23 228 -245 524 -541 442 -441 508 -502
541 -508 92 -17 70 -36 615 508 296 296 512 518 524 541 39 76 4 170 -76 207
-36 17 -69 19 -293 19 l-253 0 0 1280 0 1280 249 0 c152 0 261 4 282 11 78 25
128 127 99 202 -17 42 -1003 1034 -1047 1053 -37 16 -87 17 -123 3z"/>
</g>
</svg>
