<?xml version="1.0" standalone="no"?>
<!DOCTYPE svg PUBLIC "-//W3C//DTD SVG 20010904//EN"
 "http://www.w3.org/TR/2001/REC-SVG-20010904/DTD/svg10.dtd">
<svg version="1.0" xmlns="http://www.w3.org/2000/svg"
 width="512.000000pt" height="512.000000pt" viewBox="0 0 512.000000 512.000000"
 preserveAspectRatio="xMidYMid meet">

<g transform="translate(0.000000,512.000000) scale(0.100000,-0.100000)"
fill="#000000" stroke="none">
<path d="M732 4463 c-57 -28 -87 -78 -87 -142 0 -67 27 -111 85 -141 39 -20
66 -20 1831 -20 1991 0 1831 -6 1886 66 53 70 35 173 -39 226 l-33 23 -1805 2
c-1656 2 -1808 1 -1838 -14z"/>
<path d="M732 3583 c-57 -28 -87 -78 -87 -142 0 -67 27 -111 85 -141 38 -20
63 -20 1191 -20 1279 0 1192 -5 1246 66 53 70 35 173 -39 226 l-33 23 -1165 2
c-1063 2 -1168 1 -1198 -14z"/>
<path d="M732 2703 c-57 -28 -87 -78 -87 -142 0 -67 27 -111 85 -141 39 -20
66 -20 1831 -20 1991 0 1831 -6 1886 66 53 70 35 173 -39 226 l-33 23 -1805 2
c-1656 2 -1808 1 -1838 -14z"/>
<path d="M732 1823 c-57 -28 -87 -78 -87 -142 0 -67 27 -111 85 -141 38 -20
63 -20 1191 -20 1279 0 1192 -5 1246 66 53 70 35 173 -39 226 l-33 23 -1165 2
c-1063 2 -1168 1 -1198 -14z"/>
<path d="M732 943 c-57 -28 -87 -78 -87 -142 0 -67 27 -111 85 -141 39 -20 66
-20 1831 -20 1991 0 1831 -6 1886 66 53 70 35 173 -39 226 l-33 23 -1805 2
c-1656 2 -1808 1 -1838 -14z"/>
</g>
</svg>
