<?xml version="1.0" standalone="no"?>
<!DOCTYPE svg PUBLIC "-//W3C//DTD SVG 20010904//EN"
 "http://www.w3.org/TR/2001/REC-SVG-20010904/DTD/svg10.dtd">
<svg version="1.0" xmlns="http://www.w3.org/2000/svg"
 width="50.000000pt" height="50.000000pt" viewBox="0 0 50.000000 50.000000"
 preserveAspectRatio="xMidYMid meet">

<g transform="translate(0.000000,50.000000) scale(0.100000,-0.100000)"
fill="#000000" stroke="none">
<path d="M165 340 c-10 -11 -29 -20 -42 -20 -14 0 -23 -6 -23 -15 0 -9 10 -15
26 -15 14 0 32 -7 40 -15 20 -19 48 -19 68 0 10 11 36 15 90 15 61 0 76 3 76
15 0 12 -15 15 -73 15 -61 0 -77 3 -92 20 -10 11 -26 20 -35 20 -9 0 -25 -9
-35 -20z m50 -29 c7 -12 -12 -24 -25 -16 -11 7 -4 25 10 25 5 0 11 -4 15 -9z"/>
<path d="M280 225 c-9 -11 -34 -15 -96 -15 -77 0 -84 -2 -84 -20 0 -19 7 -20
90 -20 50 0 90 -4 90 -9 0 -19 41 -23 65 -7 13 9 31 16 40 16 8 0 15 9 15 20
0 13 -7 20 -19 20 -10 0 -24 7 -31 15 -7 8 -23 15 -35 15 -12 0 -28 -7 -35
-15z m50 -30 c0 -8 -7 -15 -15 -15 -16 0 -20 12 -8 23 11 12 23 8 23 -8z"/>
</g>
</svg>
